<svg width="100" height="31" viewBox="0 0 100 31" fill="none" xmlns="http://www.w3.org/2000/svg">
<g clip-path="url(#clip0_374_61)">
<mask id="mask0_374_61" style="mask-type:luminance" maskUnits="userSpaceOnUse" x="0" y="0" width="80" height="25">
<path d="M80 0H0V24.8H80V0Z" fill="white"/>
</mask>
<g mask="url(#mask0_374_61)">
<path d="M0 24.4088V16.0264C0 15.0132 0.147772 14.1053 0.445163 13.3006C0.742554 12.4978 1.17294 11.8094 1.73817 11.2373C2.30339 10.6652 2.97945 10.2278 3.77003 9.92331C4.55876 9.6188 5.45463 9.46747 6.45394 9.46747C7.45324 9.46747 8.34172 9.61696 9.16001 9.91224C9.9783 10.2094 10.6839 10.6283 11.2787 11.1709C11.8735 11.7135 12.3371 12.3612 12.6696 13.1142C13.0021 13.8672 13.1702 14.6995 13.1702 15.6112C13.1702 16.4657 13.0224 17.25 12.725 17.9679C12.4276 18.684 12.0194 19.3041 11.4967 19.8245C10.9758 20.3449 10.344 20.7509 9.60517 21.0407C8.86631 21.3304 8.0628 21.4744 7.1928 21.4744C6.16393 21.4744 5.20342 21.2714 4.31309 20.8672C3.42277 20.463 2.63588 19.8688 1.95428 19.0863L2.21473 16.2848C2.69314 16.9935 3.28238 17.5324 3.98615 17.9033C4.68806 18.2724 5.47495 18.457 6.34495 18.457C6.86585 18.457 7.33687 18.3924 7.75802 18.2613C8.17733 18.1303 8.53383 17.9402 8.82383 17.6855C9.11383 17.4327 9.33734 17.1319 9.49804 16.7849C9.65689 16.438 9.73632 16.0394 9.73632 15.5909C9.73632 15.1424 9.66059 14.7659 9.50727 14.419C9.35581 14.072 9.14523 13.7749 8.8774 13.5295C8.60956 13.284 8.28261 13.0921 7.90025 12.9537C7.51605 12.8171 7.08566 12.747 6.60725 12.747C6.12884 12.747 5.70584 12.8189 5.33641 12.9647C4.96698 13.1087 4.65112 13.3154 4.39067 13.583C4.13022 13.8506 3.93443 14.1846 3.80328 14.5814C3.67213 14.98 3.60748 15.4322 3.60748 15.9378V24.4069H0V24.4088Z" fill="#00C886"/>
<path d="M14.7344 9.83844H18.3419V24.4088H14.7344V9.83844Z" fill="#00C886"/>
<path d="M30.9577 10.1984C31.9349 10.6838 32.8012 11.4183 33.5548 12.402L30.9466 14.5077C30.5255 13.9725 30.0489 13.5739 29.5114 13.3136C28.9757 13.0534 28.3588 12.9224 27.6642 12.9224C27.0565 12.9224 26.5024 13.0239 26.0018 13.2269C25.5012 13.4299 25.0708 13.716 24.7088 14.0851C24.3468 14.4542 24.0678 14.8952 23.8721 15.4101C23.6763 15.925 23.5784 16.499 23.5784 17.1357C23.5784 17.7724 23.6763 18.3297 23.8721 18.852C24.0678 19.3724 24.3431 19.8191 24.6977 20.1882C25.0524 20.5573 25.4809 20.8433 25.9796 21.0463C26.4802 21.2493 27.0344 21.3508 27.6421 21.3508C28.3089 21.3508 28.9129 21.2198 29.456 20.9596C29.999 20.6994 30.4959 20.2934 30.9448 19.7434L33.553 21.8491C32.7993 22.8346 31.9293 23.5728 30.9448 24.0637C29.9584 24.5565 28.8501 24.8019 27.6199 24.8019C26.519 24.8019 25.5012 24.61 24.5666 24.2261C23.6319 23.8423 22.8284 23.3108 22.1542 22.6298C21.48 21.9488 20.9517 21.1423 20.5675 20.2085C20.1833 19.2746 19.9912 18.2504 19.9912 17.1357C19.9912 16.021 20.1833 14.9967 20.5675 14.0629C20.9517 13.1291 21.48 12.3226 22.1542 11.6416C22.8284 10.9606 23.6319 10.4291 24.5666 10.0452C25.5012 9.66136 26.5264 9.46942 27.6421 9.46942C28.8741 9.46942 29.9787 9.71119 30.9559 10.1966L30.9577 10.1984Z" fill="#00C886"/>
<path d="M34.5009 14.0297C34.8704 13.0885 35.3876 12.282 36.0544 11.6084C36.7212 10.9348 37.521 10.4106 38.4557 10.0342C39.3903 9.65767 40.4155 9.46942 41.5312 9.46942C42.6469 9.46942 43.6905 9.65767 44.6178 10.0342C45.545 10.4106 46.3449 10.9348 47.0191 11.6084C47.6933 12.282 48.2142 13.0885 48.5836 14.0297C48.953 14.9709 49.1377 16.0062 49.1377 17.1357C49.1377 18.2651 48.953 19.3005 48.5836 20.2398C48.2142 21.1811 47.6933 21.9875 47.0191 22.6612C46.3449 23.3348 45.545 23.8589 44.6178 24.2354C43.6905 24.6119 42.6616 24.8001 41.5312 24.8001C40.4007 24.8001 39.3903 24.6119 38.4557 24.2354C37.521 23.8589 36.7212 23.3348 36.0544 22.6612C35.3876 21.9875 34.8704 21.1811 34.5009 20.2398C34.1315 19.2986 33.9468 18.2633 33.9468 17.1357C33.9468 16.0081 34.1315 14.9709 34.5009 14.0297ZM45.2587 15.4083C45.0629 14.8952 44.7914 14.4523 44.4441 14.0832C44.0969 13.7141 43.6757 13.4281 43.1844 13.2251C42.6912 13.022 42.1408 12.9205 41.533 12.9205C40.9253 12.9205 40.3767 13.022 39.8928 13.2251C39.407 13.4281 38.9877 13.7141 38.633 14.0832C38.2784 14.4523 38.0068 14.8934 37.8184 15.4083C37.63 15.9232 37.5358 16.4971 37.5358 17.1338C37.5358 17.7706 37.63 18.3464 37.8184 18.8594C38.0068 19.3725 38.2784 19.8154 38.633 20.1845C38.9877 20.5536 39.4088 20.8396 39.8928 21.0426C40.3786 21.2457 40.9253 21.3472 41.533 21.3472C42.1408 21.3472 42.6912 21.2457 43.1844 21.0426C43.6776 20.8396 44.0969 20.5536 44.4441 20.1845C44.7914 19.8154 45.0629 19.3743 45.2587 18.8594C45.4545 18.3464 45.5524 17.7706 45.5524 17.1338C45.5524 16.4971 45.4545 15.9213 45.2587 15.4083Z" fill="#00C886"/>
<path d="M50.7041 24.4089V15.9841C50.7041 13.8415 51.2804 12.2211 52.4312 11.1193C53.5838 10.0194 55.274 9.46942 57.5053 9.46942C58.549 9.46942 59.4836 9.58938 60.3093 9.82745C61.135 10.0655 61.8314 10.4106 62.3966 10.8591C62.9618 11.3076 63.3959 11.8575 63.7007 12.509C64.0054 13.1605 64.1569 13.8913 64.1569 14.7015C64.1569 15.2957 64.0775 15.842 63.9186 16.3403C63.7598 16.8404 63.5307 17.2815 63.2333 17.6654C62.936 18.0492 62.5739 18.3703 62.1472 18.6324C61.7205 18.8926 61.2384 19.0809 60.7009 19.1971L60.7656 17.2003C61.388 17.4181 61.9182 17.6524 62.3523 17.9053C62.7863 18.1581 63.1373 18.4515 63.407 18.7837C63.6748 19.1178 63.8706 19.4961 63.9944 19.9243C64.1181 20.3506 64.1791 20.8396 64.1791 21.3896V23.3219C64.1791 23.5968 64.1828 23.8109 64.1902 23.9622C64.1976 24.1136 64.216 24.2631 64.2437 24.407H60.6787C60.6363 24.2631 60.6067 24.1173 60.5919 23.9733C60.5771 23.8294 60.5698 23.6614 60.5698 23.4732V21.6923C60.5698 21.3878 60.518 21.1312 60.4183 20.9208C60.3167 20.7105 60.1615 20.537 59.951 20.4004C59.7404 20.2638 59.4689 20.1623 59.1364 20.0959C58.802 20.0313 58.4049 19.9981 57.9413 19.9981H52.5513V17.1542H57.9191C58.3532 17.1542 58.7374 17.1099 59.0699 17.0231C59.4024 16.9364 59.6813 16.8053 59.9066 16.6319C60.1301 16.4584 60.2982 16.2443 60.4072 15.9915C60.5162 15.7386 60.5698 15.4378 60.5698 15.0909C60.5698 14.3231 60.2945 13.727 59.7441 13.2989C59.1936 12.8726 58.4031 12.6585 57.376 12.6585C56.349 12.6585 55.5437 12.9076 55.0505 13.4078C54.5573 13.9079 54.3116 14.6996 54.3116 15.7848V24.4052H50.7041V24.4089Z" fill="#00C886"/>
<path d="M76.5238 17.1358C76.5238 16.5286 76.4591 15.9639 76.328 15.4416C76.1968 14.9193 75.9844 14.469 75.687 14.0852C75.3896 13.7013 75.0091 13.4005 74.5455 13.1846C74.0818 12.9668 73.524 12.8597 72.872 12.8597C72.2199 12.8597 71.6658 12.9723 71.2095 13.1956C70.7533 13.4208 70.3765 13.7235 70.0791 14.1073C69.7817 14.4912 69.5674 14.9433 69.4381 15.4638C69.307 15.9842 69.2423 16.5434 69.2423 17.1358V24.4108H65.8306V17.1155C65.8306 16.0008 65.9821 14.9766 66.2869 14.0427C66.5916 13.1089 67.0405 12.3061 67.6353 11.6325C68.2282 10.9589 68.9671 10.4311 69.8519 10.0472C70.7348 9.6633 71.7507 9.47137 72.8941 9.47137C74.0375 9.47137 75.0738 9.6633 75.9585 10.0472C76.8415 10.4311 77.5803 10.9589 78.1751 11.6325C78.7681 12.3061 79.2225 13.1089 79.5328 14.0427C79.8449 14.9766 80.0001 16.0008 80.0001 17.1155V24.4108H76.5219V17.1358H76.5238ZM67.5041 17.6784H78.4152V20.7622H67.5041V17.6784Z" fill="#00C886"/>
<path d="M13.5047 2.12976C13.2535 2.12976 13.03 1.95812 12.9616 1.71267C12.921 1.56687 12.9376 1.4137 13.0097 1.28082C13.0817 1.14794 13.2018 1.05382 13.3458 1.01322C13.3957 1.0003 13.4456 0.99292 13.4955 0.99292C13.7467 0.99292 13.9702 1.16455 14.0385 1.41001C14.0792 1.5558 14.0625 1.70898 13.9905 1.84186C13.9185 1.97473 13.7984 2.06885 13.6543 2.10945C13.6044 2.12237 13.5546 2.12976 13.5047 2.12976Z" fill="#00C886"/>
<path d="M13.4956 1.01874C13.7283 1.01874 13.9444 1.17561 14.0128 1.41553C14.094 1.70343 13.9296 2.0024 13.647 2.08176C13.599 2.09468 13.551 2.10206 13.5048 2.10206C13.2721 2.10206 13.0559 1.94519 12.9876 1.70528C12.9063 1.41738 13.0707 1.1184 13.3533 1.03904C13.4014 1.02613 13.4494 1.01874 13.4956 1.01874ZM13.4956 0.963379C13.442 0.963379 13.3903 0.970761 13.3386 0.985525C13.0264 1.07411 12.8454 1.40261 12.9359 1.72004C13.0079 1.97657 13.2425 2.15743 13.5066 2.15743C13.5602 2.15743 13.6119 2.15004 13.6637 2.13528C13.9758 2.04669 14.1568 1.71819 14.0663 1.40077C13.9943 1.14424 13.7597 0.963379 13.4956 0.963379Z" fill="#00C886"/>
<path d="M16.9256 1.16454C16.6744 1.16454 16.4509 0.992912 16.3826 0.747459C16.3419 0.601664 16.3585 0.448486 16.4306 0.315609C16.5026 0.182733 16.6227 0.0886119 16.7668 0.0480107C16.8166 0.0350921 16.8665 0.02771 16.9164 0.02771C17.1676 0.02771 17.3911 0.199342 17.4594 0.444795C17.5444 0.747459 17.3726 1.06119 17.0752 1.14424C17.0254 1.15716 16.9755 1.16454 16.9256 1.16454Z" fill="#00C886"/>
<path d="M16.916 0.0553654C17.1487 0.0553654 17.3648 0.212234 17.4332 0.452151C17.5145 0.740051 17.3501 1.03902 17.0674 1.11838C17.0194 1.1313 16.9714 1.13868 16.9252 1.13868C16.6925 1.13868 16.4764 0.981813 16.408 0.741896C16.3267 0.453996 16.4911 0.155023 16.7738 0.075666C16.8218 0.0627474 16.8698 0.0553654 16.916 0.0553654ZM16.916 0C16.8624 0 16.8107 0.00738205 16.759 0.0221462C16.4468 0.110731 16.2658 0.439232 16.3563 0.75666C16.4283 1.01319 16.6629 1.19405 16.9271 1.19405C16.9806 1.19405 17.0324 1.18666 17.0841 1.1719C17.3962 1.08332 17.5773 0.754815 17.4868 0.437387C17.4147 0.18086 17.1801 0 16.916 0Z" fill="#00C886"/>
<path d="M15.7951 6.845C15.3333 6.845 14.8752 6.75641 14.4374 6.58478C13.8205 6.34117 13.2755 5.93516 12.8562 5.41103L12.847 5.41841C12.8082 5.45348 12.762 5.47747 12.7122 5.49223C12.6826 5.50146 12.6512 5.50515 12.6198 5.50515C12.5201 5.50515 12.424 5.46086 12.3575 5.38519C12.2301 5.2394 12.2448 5.01794 12.3871 4.8906L12.9006 4.43291C12.9634 4.37754 13.0447 4.34617 13.1278 4.34617C13.2275 4.34617 13.3236 4.39046 13.3901 4.46613C13.512 4.60639 13.5046 4.82047 13.3734 4.94781C13.9608 5.70816 14.8382 6.14185 15.784 6.14185C16.061 6.14185 16.3381 6.1031 16.606 6.02743C17.8029 5.6897 18.6618 4.66729 18.7967 3.41972C18.6157 3.37359 18.5011 3.19826 18.5307 3.0174C18.5584 2.84946 18.7006 2.72766 18.8687 2.72766C18.889 2.72766 18.9094 2.72766 18.9297 2.73319L19.6057 2.855C19.7941 2.88822 19.9216 3.07092 19.8902 3.26285C19.868 3.39573 19.772 3.50462 19.6445 3.53968C19.615 3.54891 19.5836 3.5526 19.5522 3.5526C19.5318 3.5526 19.5115 3.5526 19.4912 3.54706H19.4801C19.397 4.21145 19.1439 4.84261 18.745 5.37228C18.2536 6.02374 17.5794 6.48512 16.7962 6.70658C16.4674 6.79886 16.1312 6.84684 15.7951 6.84684V6.845Z" fill="#00C886"/>
<path d="M18.8708 2.75538C18.8892 2.75538 18.9077 2.75538 18.9262 2.76091L19.6022 2.88272C19.7759 2.91409 19.8922 3.08203 19.8645 3.25735C19.8442 3.38469 19.7519 3.48066 19.6373 3.51204C19.6096 3.51942 19.5819 3.52311 19.5524 3.52311C19.5339 3.52311 19.5154 3.52311 19.4969 3.51757L19.4563 3.51019C19.3787 4.17642 19.1257 4.8205 18.723 5.35201C18.2353 5.99979 17.5667 6.45747 16.789 6.67709C16.4602 6.76936 16.1277 6.8155 15.7953 6.8155C15.339 6.8155 14.8846 6.72876 14.4487 6.55713C13.828 6.31168 13.2739 5.89644 12.8601 5.36862L12.8287 5.3963C12.7918 5.42952 12.7493 5.45167 12.705 5.46459C12.6773 5.47197 12.6477 5.47566 12.62 5.47566C12.5313 5.47566 12.4427 5.43875 12.378 5.36493C12.2617 5.23021 12.2727 5.02536 12.4057 4.90909L12.9193 4.4514C12.9784 4.39788 13.0541 4.37204 13.128 4.37204C13.2166 4.37204 13.3053 4.40895 13.37 4.48277C13.4863 4.6175 13.4752 4.82235 13.3422 4.93862L13.3367 4.94415C13.9315 5.72665 14.8384 6.16957 15.7842 6.16957C16.0594 6.16957 16.3383 6.13266 16.6135 6.05515C17.8364 5.71004 18.699 4.65994 18.8264 3.39761H18.819C18.6454 3.36439 18.529 3.19645 18.5567 3.02113C18.5826 2.86426 18.7156 2.75353 18.8671 2.75353M18.8708 2.70001C18.6897 2.70001 18.5346 2.83104 18.505 3.01375C18.4736 3.20383 18.59 3.38654 18.7673 3.44191C18.6251 4.66917 17.7773 5.67128 16.5988 6.00348C16.3328 6.07914 16.0576 6.11605 15.7842 6.11605C14.8551 6.11605 13.9924 5.69158 13.4106 4.94969C13.5344 4.80574 13.5362 4.59166 13.4106 4.44771C13.3386 4.36466 13.2351 4.31668 13.128 4.31668C13.0375 4.31668 12.9507 4.3499 12.8823 4.4108L12.3688 4.86849C12.2155 5.00505 12.2007 5.24497 12.3374 5.40184C12.4094 5.48489 12.5129 5.53287 12.62 5.53287C12.6533 5.53287 12.6884 5.52733 12.7198 5.51995C12.7678 5.50703 12.8121 5.48304 12.8528 5.45167C13.2721 5.97026 13.8151 6.37073 14.4284 6.6125C14.8698 6.78597 15.3298 6.87456 15.7953 6.87456C16.1351 6.87456 16.4732 6.82658 16.8057 6.7343C17.5944 6.51284 18.2741 6.04777 18.7692 5.39077C19.1645 4.8648 19.4194 4.24101 19.5062 3.58032C19.5228 3.58216 19.5394 3.58401 19.5561 3.58401C19.5893 3.58401 19.6226 3.57847 19.6558 3.57109C19.7943 3.53234 19.8978 3.41422 19.9218 3.27212C19.955 3.06727 19.8183 2.8698 19.6152 2.83289L18.9391 2.71108C18.9169 2.70739 18.8948 2.70555 18.8726 2.70555L18.8708 2.70001Z" fill="#00C886"/>
</g>
</g>
<defs>
<clipPath id="clip0_374_61">
<rect width="100" height="31" fill="white"/>
</clipPath>
</defs>
</svg>
